<svg width="16" height="17" viewBox="0 0 16 17" fill="none" xmlns="http://www.w3.org/2000/svg">
<path d="M3.23095 0.997172C3.50437 0.981232 3.75152 1.1428 3.93888 1.42957L5.75324 4.83112C5.94427 5.23419 5.83571 5.66578 5.55075 5.95377L4.71971 6.77533C4.66842 6.84482 4.63467 6.92307 4.63385 7.00914C4.95255 8.2287 5.91928 9.35364 6.77223 10.1272C7.62515 10.9009 8.54187 11.9482 9.73188 12.1964C9.87897 12.2369 10.0592 12.2515 10.1644 12.1548L11.1299 11.1827C11.4632 10.9329 11.9453 10.8119 12.3011 11.0161H12.3173L15.5913 12.9267C16.0718 13.2245 16.1216 13.8001 15.7776 14.1502L13.5226 16.3619C13.1896 16.6995 12.7472 16.813 12.3174 16.8135C10.4164 16.7572 8.62019 15.8348 7.14483 14.8869C4.72314 13.1452 2.50177 10.9851 1.10718 8.37524C0.572328 7.28086 -0.0559767 5.88452 0.00398504 4.66302C0.00933758 4.20349 0.1351 3.7533 0.462446 3.4571L2.71744 1.22783C2.8931 1.08006 3.06688 1.00675 3.23095 0.997172Z" fill="url(#paint0_linear)"/>
<defs>
<linearGradient id="paint0_linear" x1="-2.63914e-07" y1="3.86093" x2="16" y2="3.86093" gradientUnits="userSpaceOnUse">
<stop stop-color="#FAFAFA"/>
<stop offset="1" stop-color="#F2F2F2"/>
</linearGradient>
</defs>
</svg>
