<svg width="119" height="33" viewBox="0 0 119 33" fill="none" xmlns="http://www.w3.org/2000/svg">
<path fill-rule="evenodd" clip-rule="evenodd" d="M47.1876 19.0948H40.1666L38.7824 22.354H36.0944L42.4133 8.27093H44.9811L51.3201 22.354H48.5919L47.1876 19.0948ZM46.325 17.0427L43.6771 10.8864L41.0492 17.0427H46.325ZM57.7794 22.4948C56.6694 22.4948 55.6731 22.2601 54.7904 21.7907C53.9078 21.3212 53.2191 20.6673 52.7242 19.829C52.2295 18.9908 51.982 18.0419 51.982 16.9822C51.982 15.9227 52.2295 14.9771 52.7242 14.1456C53.2191 13.314 53.9045 12.6635 54.7804 12.194C55.6564 11.7246 56.6561 11.4899 57.7794 11.4899C58.8359 11.4899 59.7621 11.7045 60.5578 12.1337C61.3535 12.5629 61.9519 13.1799 62.3531 13.9846L60.4274 15.1113C60.1198 14.615 59.7353 14.2428 59.2739 13.9947C58.8125 13.7466 58.3077 13.6225 57.7594 13.6225C56.8232 13.6225 56.0476 13.9276 55.4324 14.5379C54.8172 15.1481 54.5096 15.963 54.5096 16.9822C54.5096 18.0016 54.8139 18.8165 55.4224 19.4267C56.0308 20.037 56.8098 20.3421 57.7594 20.3421C58.3077 20.3421 58.8125 20.218 59.2739 19.9699C59.7353 19.7218 60.1198 19.3496 60.4274 18.8533L62.3531 19.98C61.9386 20.7847 61.3335 21.405 60.5377 21.841C59.742 22.2768 58.8225 22.4948 57.7794 22.4948ZM70.959 21.7705C70.6648 22.012 70.3071 22.193 69.8857 22.3137C69.4645 22.4344 69.0198 22.4948 68.5518 22.4948C67.3748 22.4948 66.4655 22.1863 65.8236 21.5693C65.1817 20.9524 64.8607 20.0537 64.8607 18.8735V13.703H63.0954V11.6911H64.8607V9.23666H67.3682V11.6911H70.2368V13.703H67.3682V18.8131C67.3682 19.3362 67.4952 19.7352 67.7493 20.0102C68.0034 20.2851 68.3712 20.4226 68.8526 20.4226C69.4144 20.4226 69.8824 20.275 70.2569 19.98L70.959 21.7705ZM73.0251 11.6106H75.5327V22.354H73.0251V11.6106ZM74.289 9.84017C73.8343 9.84017 73.4531 9.69603 73.1455 9.40767C72.8379 9.11931 72.6841 8.76048 72.6841 8.33129C72.6841 7.90208 72.8379 7.54331 73.1455 7.25494C73.4531 6.96657 73.8343 6.82239 74.289 6.82239C74.7437 6.82239 75.1248 6.95986 75.4324 7.23483C75.74 7.50978 75.8937 7.85514 75.8937 8.27093C75.8937 8.71354 75.7433 9.08574 75.4424 9.38749C75.1415 9.68934 74.757 9.84017 74.289 9.84017ZM88.8526 11.6106L84.2589 22.354H81.6711L77.0774 11.6106H79.6852L83.0152 19.5776L86.4454 11.6106H88.8526ZM90.4173 11.6106H92.925V22.354H90.4173V11.6106ZM91.6815 9.84017C91.2267 9.84017 90.845 9.69603 90.5373 9.40767C90.2302 9.11931 90.0763 8.76048 90.0763 8.33129C90.0763 7.90208 90.2302 7.54331 90.5373 7.25494C90.845 6.96657 91.2267 6.82239 91.6815 6.82239C92.1354 6.82239 92.5171 6.95986 92.8248 7.23483C93.1325 7.50978 93.2859 7.85514 93.2859 8.27093C93.2859 8.71354 93.1352 9.08574 92.8347 9.38749C92.5333 9.68934 92.1489 9.84017 91.6815 9.84017ZM102.654 21.7705C102.36 22.012 102.002 22.193 101.58 22.3137C101.16 22.4344 100.715 22.4948 100.247 22.4948C99.07 22.4948 98.1605 22.1863 97.5189 21.5693C96.8764 20.9524 96.5561 20.0537 96.5561 18.8735V13.703H94.7901V11.6911H96.5561V9.23666H99.0637V11.6911H101.932V13.703H99.0637V18.8131C99.0637 19.3362 99.1901 19.7352 99.4445 20.0102C99.699 20.2851 100.066 20.4226 100.548 20.4226C101.109 20.4226 101.578 20.275 101.952 19.98L102.654 21.7705ZM104.721 11.6106H107.227V22.354H104.721V11.6106ZM105.984 9.84017C105.529 9.84017 105.148 9.69603 104.841 9.40767C104.533 9.11931 104.38 8.76048 104.38 8.33129C104.38 7.90208 104.533 7.54331 104.841 7.25494C105.148 6.96657 105.529 6.82239 105.984 6.82239C106.439 6.82239 106.82 6.95986 107.127 7.23483C107.435 7.50978 107.589 7.85514 107.589 8.27093C107.589 8.71354 107.439 9.08574 107.137 9.38749C106.837 9.68934 106.452 9.84017 105.984 9.84017ZM113.827 22.4948C112.958 22.4948 112.109 22.3808 111.28 22.1528C110.451 21.9247 109.789 21.6364 109.294 21.2877L110.257 19.3764C110.738 19.6983 111.317 19.9565 111.992 20.151C112.668 20.3454 113.333 20.4427 113.988 20.4427C115.486 20.4427 116.235 20.047 116.235 19.2557C116.235 18.8802 116.044 18.6186 115.664 18.4711C115.282 18.3235 114.67 18.1827 113.827 18.0486C112.945 17.9145 112.226 17.7602 111.671 17.5858C111.117 17.4115 110.635 17.1064 110.227 16.6705C109.819 16.2345 109.615 15.6277 109.615 14.8497C109.615 13.8304 110.039 13.0156 110.889 12.4053C111.738 11.795 112.885 11.4899 114.329 11.4899C115.064 11.4899 115.8 11.5738 116.536 11.7414C117.272 11.909 117.873 12.1337 118.341 12.4153L117.378 14.3266C116.468 13.7901 115.446 13.5219 114.309 13.5219C113.574 13.5219 113.015 13.6326 112.634 13.8539C112.253 14.0751 112.062 14.3669 112.062 14.729C112.062 15.1314 112.266 15.4164 112.674 15.5841C113.082 15.7517 113.714 15.9093 114.57 16.0568C115.425 16.191 116.128 16.3452 116.676 16.5195C117.225 16.6939 117.696 16.989 118.09 17.4048C118.485 17.8206 118.682 18.4107 118.682 19.1752C118.682 20.1812 118.248 20.9859 117.378 21.5894C116.509 22.193 115.325 22.4948 113.827 22.4948Z" fill="white"/>
<path opacity="0.5" d="M17.1945 17.2445H16.5576V28.4216H17.1945V17.2445Z" fill="white"/>
<path opacity="0.5" d="M27.6348 3.60767L28.0851 4.05929L18.8538 13.3175L18.4034 12.8659L27.6348 3.60767Z" fill="white"/>
<path opacity="0.5" d="M15.5191 15.7587L15.9694 16.2103L3.58592 28.6299L3.13562 28.1782L15.5191 15.7587Z" fill="white"/>
<path opacity="0.5" d="M7.99242 5.00928L14.747 11.7835L14.2967 12.2352L7.54211 5.46089L7.99242 5.00928Z" fill="white"/>
<path opacity="0.5" d="M18.6946 15.583L27.926 24.8412L27.4756 25.2928L18.2443 16.0347L18.6946 15.583Z" fill="white"/>
<path d="M29.4534 6.06752C31.1241 6.06752 32.4783 4.70926 32.4783 3.03376C32.4783 1.35826 31.1241 0 29.4534 0C27.7828 0 26.4285 1.35826 26.4285 3.03376C26.4285 4.70926 27.7828 6.06752 29.4534 6.06752Z" fill="white"/>
<path d="M17.0352 32.573C18.7059 32.573 20.0601 31.2147 20.0601 29.5393C20.0601 27.8638 18.7059 26.5055 17.0352 26.5055C15.3646 26.5055 14.0103 27.8638 14.0103 29.5393C14.0103 31.2147 15.3646 32.573 17.0352 32.573Z" fill="white"/>
<path d="M3.02495 31.2956C4.69558 31.2956 6.0499 29.9373 6.0499 28.2618C6.0499 26.5863 4.69558 25.228 3.02495 25.228C1.35432 25.228 0 26.5863 0 28.2618C0 29.9373 1.35432 31.2956 3.02495 31.2956Z" fill="white"/>
<path d="M7.32358 6.70615C8.37872 6.70615 9.23406 5.84829 9.23406 4.79008C9.23406 3.73188 8.37872 2.87402 7.32358 2.87402C6.26844 2.87402 5.41309 3.73188 5.41309 4.79008C5.41309 5.84829 6.26844 6.70615 7.32358 6.70615Z" fill="white"/>
<path d="M27.0653 26.5055C28.1204 26.5055 28.9758 25.6476 28.9758 24.5894C28.9758 23.5312 28.1204 22.6733 27.0653 22.6733C26.0101 22.6733 25.1548 23.5312 25.1548 24.5894C25.1548 25.6476 26.0101 26.5055 27.0653 26.5055Z" fill="white"/>
<path d="M17.0352 19.1606C19.4093 19.1606 21.3338 17.2304 21.3338 14.8495C21.3338 12.4685 19.4093 10.5383 17.0352 10.5383C14.6611 10.5383 12.7366 12.4685 12.7366 14.8495C12.7366 17.2304 14.6611 19.1606 17.0352 19.1606Z" fill="white"/>
</svg>
